<svg xmlns="http://www.w3.org/2000/svg" xmlns:xlink="http://www.w3.org/1999/xlink" data-name="Layer 1" viewBox="0 0 512 512"><defs><linearGradient id="a" x1="256" x2="256" y1="28" y2="482.533" gradientUnits="userSpaceOnUse"><stop offset="0" stop-color="#00efd1"/><stop offset="1" stop-color="#00acea"/></linearGradient><linearGradient id="b" x1="254" x2="254" y1="28" y2="482.533" xlink:href="#a"/><linearGradient id="c" x1="350.663" x2="350.663" y1="28" y2="482.533" xlink:href="#a"/><linearGradient id="d" x1="160.887" x2="160.887" y1="28" y2="482.533" xlink:href="#a"/><linearGradient id="e" x1="200.77" x2="200.77" y1="28" y2="482.533" xlink:href="#a"/><linearGradient id="f" x1="303.268" x2="303.268" y1="28" y2="482.533" xlink:href="#a"/></defs><path fill="url(#a)" d="M364,285.329V277h1.86a6.465,6.465,0,0,0,6.14-6.389V210.234A14.359,14.359,0,0,0,357.705,196H305.824a70.022,70.022,0,0,0,20.959-50.3,70.829,70.829,0,0,0-141.658-.01A70.017,70.017,0,0,0,206.084,196H154.295A14.359,14.359,0,0,0,140,210.234v60.377A6.465,6.465,0,0,0,146.14,277H148v8.347c-24,11.554-40,37.034-40,64.679V465.165C108,486.39,125.12,504,146.362,504H365.655C386.88,504,404,486.39,404,465.147V350.03C404,322.231,388,296.749,364,285.329ZM197.125,145.722a58.829,58.829,0,1,1,89.663,50.089c-.115.07-.22.189-.328.189H258.185A5.78,5.78,0,0,0,261,191v-4.1a22.787,22.787,0,0,0-5.046-45.008A10.789,10.789,0,1,1,266.743,131.1a6,6,0,0,0,12,0A22.825,22.825,0,0,0,262,109.13V104a6,6,0,0,0-12,0v5.1a22.787,22.787,0,0,0,5.954,44.783,10.787,10.787,0,0,1,1.178,21.51,5.873,5.873,0,0,0-3.585-.212,10.8,10.8,0,0,1-8.382-10.509,6,6,0,0,0-12,0A22.827,22.827,0,0,0,249,186.376V191a5.78,5.78,0,0,0,2.815,5H225.464c-.07,0-.136-.059-.209-.1A58.454,58.454,0,0,1,197.125,145.722ZM152,210.234A2.35,2.35,0,0,1,154.295,208h203.41a2.35,2.35,0,0,1,2.3,2.234V265H152Zm240,254.9C392,479.776,380.267,492,365.638,492H146.38C131.733,492,120,479.776,120,465.147V350.026c0-24.191,14.512-46.369,36.487-55.188A5.779,5.779,0,0,0,160,289.27V277H352v12.273a5.78,5.78,0,0,0,3.544,5.581C377.5,303.523,392,325.7,392,350.03Z"/><path fill="url(#b)" d="M254,45a6,6,0,0,0,6-6V14a6,6,0,0,0-12,0V39A6,6,0,0,0,254,45Z"/><path fill="url(#c)" d="M341.64,83.553a5.981,5.981,0,0,0,4.243-1.758L363.928,63.75a6,6,0,0,0-8.486-8.485L337.4,73.31a6,6,0,0,0,4.243,10.243Z"/><path fill="url(#d)" d="M165.667,82.1a6,6,0,0,0,8.485-8.486L156.107,55.569a6,6,0,0,0-8.485,8.486Z"/><path fill="url(#e)" d="M200.52,55.435a6,6,0,0,0,10.948-4.914L201.02,27.239a6,6,0,0,0-10.948,4.913Z"/><path fill="url(#f)" d="M296.6,55.885a6,6,0,0,0,7.742-3.474l9.076-23.851A6,6,0,0,0,302.2,24.292l-9.076,23.851A6,6,0,0,0,296.6,55.885Z"/></svg>