<?xml version="1.0" encoding="utf-8"?>
<svg id="master-artboard" viewBox="0 0 1400 980" version="1.1" xmlns="http://www.w3.org/2000/svg" x="0px" y="0px" width="1400px" height="980px" style="enable-background:new 0 0 1400 980;">

<path d="M 898.4000244140625 322.6000061035156 L 115.69999694824219 980 L 1161 980 L 993.5 417.70001220703125 Z" class="st1" style="fill-rule: evenodd; clip-rule: evenodd; fill: rgb(127, 182, 218);" transform="matrix(0.9999999999999999, 0, 0, 0.9999999999999999, -8.526512829121202e-14, 0)"/><path d="M 772.5 682.799988 H 1177.700012 V 980.099976 H 772.5 V 682.799988 Z" class="st2" style="fill-rule: evenodd; clip-rule: evenodd; fill: rgb(196, 111, 59);" transform="matrix(0.9999999999999999, 0, 0, 0.9999999999999999, -8.526512829121202e-14, 0)"/><path d="M 1038.199951171875 980 L 1038.199951171875 708.7999877929688 L 772.5 708.7999877929688 Z" class="st3" style="fill-rule: evenodd; clip-rule: evenodd; fill: rgb(185, 99, 45);" transform="matrix(0.9999999999999999, 0, 0, 0.9999999999999999, -8.526512829121202e-14, 0)"/><path d="M 811.200012 750 H 1038.200012 V 980 H 811.200012 V 750 Z" class="st4" style="fill-rule: evenodd; clip-rule: evenodd; fill: rgb(65, 76, 88);" transform="matrix(0.9999999999999999, 0, 0, 0.9999999999999999, -8.526512829121202e-14, 0)"/><path d="M 790.799988 750 H 952.399994 V 980 H 790.799988 V 750 Z" class="st5" style="fill-rule: evenodd; clip-rule: evenodd; fill: rgb(80, 91, 100);" transform="matrix(0.9999999999999999, 0, 0, 0.9999999999999999, -8.526512829121202e-14, 0)"/><path d="M 1038.199951 682.799988 H 1177.799957 V 980.099976 H 1038.199951 V 682.799988 Z" class="st6" style="fill-rule: evenodd; clip-rule: evenodd; fill: rgb(166, 99, 54);" transform="matrix(0.9999999999999999, 0, 0, 0.9999999999999999, -8.526512829121202e-14, 0)"/><path d="M 501.100006 844.599976 H 543.700005 V 917.199974 H 501.100006 V 844.599976 Z" class="st7" style="fill-rule: evenodd; clip-rule: evenodd; fill: rgb(202, 202, 203);" transform="matrix(0.9999999999999999, 0, 0, 0.9999999999999999, -8.526512829121202e-14, 0)"/><path d="M 501.100006 844.599976 H 519.200006 V 917.199974 H 501.100006 V 844.599976 Z" class="st8" style="fill-rule: evenodd; clip-rule: evenodd; fill: rgb(227, 228, 228);" transform="matrix(0.9999999999999999, 0, 0, 0.9999999999999999, -8.526512829121202e-14, 0)"/><path class="st9" d="M442.8,423C385.1,423,338,470.2,338,527.8v154.7c0,57.7,47.2,104.8,104.8,104.8&#10;&#9;&#9;&#9;c57.7,0,104.8-47.2,104.8-104.8V527.8C547.6,470.2,500.4,423,442.8,423z" style="fill-rule: evenodd; clip-rule: evenodd; fill: rgb(49, 59, 74);" transform="matrix(0.9999999999999999, 0, 0, 0.9999999999999999, -8.526512829121202e-14, 0)"/><path class="st5" d="M460.9,424.6c-5.9-1-12-1.6-18.1-1.6h0C385.1,423,338,470.2,338,527.8v154.7c0,57.7,47.2,104.8,104.8,104.8h0&#10;&#9;&#9;&#9;c6.2,0,12.2-0.5,18.1-1.6c-49.1-8.7-86.7-51.8-86.7-103.2V527.8C374.2,476.4,411.8,433.3,460.9,424.6z" style="fill-rule: evenodd; clip-rule: evenodd; fill: rgb(80, 91, 100);" transform="matrix(0.9999999999999999, 0, 0, 0.9999999999999999, -8.526512829121202e-14, 0)"/><path class="st4" d="M644.7,787.3h-218c-15.8,0-28.6,12.9-28.6,28.6c0,15.8,12.9,28.6,28.6,28.6h218c15.8,0,28.6-12.9,28.6-28.6&#10;&#9;&#9;&#9;C673.3,800.2,660.5,787.3,644.7,787.3z" style="fill-rule: evenodd; clip-rule: evenodd; fill: rgb(65, 76, 88);" transform="matrix(0.9999999999999999, 0, 0, 0.9999999999999999, -8.526512829121202e-14, 0)"/><path class="st7" d="M604,908.7H441c-11,0-21,4.5-28.2,11.7c-7.2,7.2-11.7,17.2-11.7,28.2V980h17v-31.4c0-6.3,2.6-12,6.7-16.1&#10;&#9;&#9;&#9;&#9;c4.1-4.2,9.9-6.7,16.1-6.7h163c6.3,0,12,2.6,16.1,6.7c4.1,4.1,6.7,9.9,6.7,16.1V980h17v-31.4c0-11-4.5-21-11.7-28.2&#10;&#9;&#9;&#9;&#9;C624.9,913.2,614.9,908.7,604,908.7z" style="fill-rule: evenodd; clip-rule: evenodd; fill: rgb(202, 202, 203);" transform="matrix(0.9999999999999999, 0, 0, 0.9999999999999999, -1.1368683772161603e-13, 0)"/><path class="st7" d="M527.9,904.9c-12,0-22.9,4.9-30.8,12.8l0,0c-7.9,7.9-12.8,18.8-12.8,30.8V980h24.6v-31.4&#10;&#9;&#9;&#9;&#9;c0-5.3,2.1-10,5.6-13.5c3.5-3.5,8.2-5.6,13.5-5.6c6.8,0,12.3-5.5,12.3-12.3C540.2,910.4,534.7,904.9,527.9,904.9z" style="fill-rule: evenodd; clip-rule: evenodd; fill: rgb(202, 202, 203);" transform="matrix(0.9999999999999999, 0, 0, 0.9999999999999999, -1.1368683772161603e-13, 0)"/><path class="st10" d="M645.8,502.5c-2.9-20.1-21.5-34.1-41.6-31.2c-20.1,2.9-34.1,21.5-31.2,41.6l17.8,123&#10;&#9;&#9;&#9;c2.9,20.1,21.5,34.1,41.6,31.2c20.1-2.9,34.1-21.5,31.2-41.6L645.8,502.5z" style="fill-rule: evenodd; clip-rule: evenodd; fill: rgb(233, 90, 92);" transform="matrix(0.9999999999999999, 0, 0, 0.9999999999999999, -8.526512829121202e-14, 0)"/><path class="st11" d="M778,593.8H627.1c-20.4,0-36.9,16.5-36.9,36.9c0,20.4,16.5,36.9,36.9,36.9H778c20.4,0,36.9-16.5,36.9-36.9&#10;&#9;&#9;&#9;C814.8,610.3,798.3,593.8,778,593.8z" style="fill-rule: evenodd; clip-rule: evenodd; fill: rgb(247, 196, 158);" transform="matrix(0.9999999999999999, 0, 0, 0.9999999999999999, -8.526512829121202e-14, 0)"/><path d="M 495 844.599976 H 550 V 865.299976 H 495 V 844.599976 Z" class="st12" style="fill-rule: evenodd; clip-rule: evenodd; fill: rgb(150, 150, 151);" transform="matrix(0.9999999999999999, 0, 0, 0.9999999999999999, -8.526512829121202e-14, 0)"/><path class="st13" d="M721.1,728.7H602.4c-20.4,0-36.9,16.5-36.9,36.9c0,20.4,16.5,36.9,36.9,36.9h118.7&#10;&#9;&#9;&#9;c20.4,0,36.9-16.5,36.9-36.9C757.9,745.2,741.4,728.7,721.1,728.7z" style="fill-rule: evenodd; clip-rule: evenodd; fill: rgb(32, 50, 65);" transform="matrix(0.9999999999999999, 0, 0, 0.9999999999999999, -8.526512829121202e-14, 0)"/><path class="st13" d="M756.3,754.8c-5.8-19.5-26.3-30.6-45.8-24.8c-19.5,5.8-30.6,26.3-24.8,45.8L746.7,980h75.2&#10;&#9;&#9;&#9;c0-3.5-0.5-7-1.5-10.5L756.3,754.8z" style="fill-rule: evenodd; clip-rule: evenodd; fill: rgb(32, 50, 65);" transform="matrix(0.9999999999999999, 0, 0, 0.9999999999999999, -8.526512829121202e-14, 0)"/><path class="st10" d="M545.9,463.7c-48.5,0-88.1,39.7-88.1,88.1v215.5h176.3V551.8C634.1,503.3,594.4,463.7,545.9,463.7z" style="fill-rule: evenodd; clip-rule: evenodd; fill: rgb(233, 90, 92);" transform="matrix(0.9999999999999999, 0, 0, 0.9999999999999999, -8.526512829121202e-14, 0)"/><path class="st14" d="M457.8,551.8v169.8c46.1-9.3,81.7-67.7,81.7-138.5c0-44-13.8-83.2-35.3-108.9&#10;&#9;&#9;&#9;C476.6,489.1,457.8,518.4,457.8,551.8z" style="fill-rule: evenodd; clip-rule: evenodd; fill: rgb(215, 60, 61);" transform="matrix(0.9999999999999999, 0, 0, 0.9999999999999999, -8.526512829121202e-14, 0)"/><path class="st9" d="M609.3,728.7H490.7c-20.4,0-36.9,16.5-36.9,36.9c0,20.4,16.5,36.9,36.9,36.9h118.7&#10;&#9;&#9;&#9;c20.4,0,36.9-16.5,36.9-36.9C646.2,745.2,629.7,728.7,609.3,728.7z" style="fill-rule: evenodd; clip-rule: evenodd; fill: rgb(49, 59, 74);" transform="matrix(0.9999999999999999, 0, 0, 0.9999999999999999, -8.526512829121202e-14, 0)"/><path class="st13" d="M556.1,753.9h-78.1c-11.5,0-21,7.9-23.6,18.6c3.3,17,18.2,29.9,36.2,29.9h65.4c13.4,0,24.2-10.9,24.2-24.3&#10;&#9;&#9;&#9;C580.4,764.7,569.5,753.9,556.1,753.9z" style="fill-rule: evenodd; clip-rule: evenodd; fill: rgb(32, 50, 65);" transform="matrix(0.9999999999999999, 0, 0, 0.9999999999999999, -8.526512829121202e-14, 0)"/><path class="st9" d="M644.6,754.8c-5.8-19.5-26.3-30.6-45.8-24.8c-19.5,5.8-30.6,26.3-24.8,45.8L634.9,980h75.2&#10;&#9;&#9;&#9;c0-3.5-0.5-7-1.5-10.5L644.6,754.8z" style="fill-rule: evenodd; clip-rule: evenodd; fill: rgb(49, 59, 74);" transform="matrix(0.9999999999999999, 0, 0, 0.9999999999999999, -8.526512829121202e-14, 0)"/><path class="st15" d="M754.2,639.1H615.7c-4.8,0-8.8,4-8.8,8.8v0c0,4.8,4,8.8,8.8,8.8h138.5c4.8,0,8.8-4,8.8-8.8v0&#10;&#9;&#9;&#9;C763,643.1,759.1,639.1,754.2,639.1z" style="fill-rule: evenodd; clip-rule: evenodd; fill: rgb(36, 117, 163);" transform="matrix(0.9999999999999999, 0, 0, 0.9999999999999999, -8.526512829121202e-14, 0)"/><path class="st9" d="M541.9,561.6c-1.8-3-5.6-3.9-8.5-2.1c-3,1.8-3.9,5.6-2.1,8.5l54.1,90.2c1.8,3,5.6,3.9,8.5,2.1&#10;&#9;&#9;&#9;c3-1.8,3.9-5.6,2.1-8.5L541.9,561.6z" style="fill-rule: evenodd; clip-rule: evenodd; fill: rgb(49, 59, 74);" transform="matrix(0.9999999999999999, 0, 0, 0.9999999999999999, -8.526512829121202e-14, 0)"/><path class="st10" d="M512,472.7c-17.7-10-40.1-3.8-50.1,13.8l-65.4,115.2c-10,17.7-3.8,40.1,13.8,50.1&#10;&#9;&#9;&#9;c17.7,10,40.1,3.8,50.1-13.8l65.4-115.2C535.8,505.2,529.6,482.7,512,472.7z" style="fill-rule: evenodd; clip-rule: evenodd; fill: rgb(233, 90, 92);" transform="matrix(0.9999999999999999, 0, 0, 0.9999999999999999, -8.526512829121202e-14, 0)"/><path class="st11" d="M557.4,583H428.4c-20.4,0-36.9,16.5-36.9,36.9s16.5,36.9,36.9,36.9h128.9c20.4,0,36.9-16.5,36.9-36.9&#10;&#9;&#9;&#9;S577.7,583,557.4,583z" style="fill-rule: evenodd; clip-rule: evenodd; fill: rgb(247, 196, 158);" transform="matrix(0.9999999999999999, 0, 0, 0.9999999999999999, -8.526512829121202e-14, 0)"/><path class="st16" d="M501.6,604.3h-70.8c-11.2,0-20.2,9.1-20.2,20.2c0,11.2,9.1,20.2,20.2,20.2h70.8c11.2,0,20.2-9.1,20.2-20.2&#10;&#9;&#9;&#9;C521.8,613.4,512.8,604.3,501.6,604.3z" style="fill-rule: evenodd; clip-rule: evenodd; fill: rgb(249, 212, 184);" transform="matrix(0.9999999999999999, 0, 0, 0.9999999999999999, -8.526512829121202e-14, 0)"/><path class="st17" d="M533.4,604.3h-70.8c-11.2,0-20.2,9.1-20.2,20.2c0,11.2,9.1,20.2,20.2,20.2h70.8c11.2,0,20.2-9.1,20.2-20.2&#10;&#9;&#9;&#9;C553.6,613.4,544.5,604.3,533.4,604.3z" style="fill-rule: evenodd; clip-rule: evenodd; fill: rgb(248, 204, 172);" transform="matrix(0.9999999999999999, 0, 0, 0.9999999999999999, -8.526512829121202e-14, 0)"/><path class="st11" d="M592.3,353.9L592.3,353.9c-35.9,0-65.4,29.4-65.4,65.4v24.7c0,35.9,29.4,65.4,65.4,65.4h0&#10;&#9;&#9;&#9;c35.9,0,65.4-29.4,65.4-65.4v-24.7C657.6,383.3,628.2,353.9,592.3,353.9z" style="fill-rule: evenodd; clip-rule: evenodd; fill: rgb(247, 196, 158);" transform="matrix(0.9999999999999999, 0, 0, 0.9999999999999999, -8.526512829121202e-14, 0)"/><path d="M 615.700012 502 A 30 30 0 0 1 585.700012 532 A 30 30 0 0 1 555.700012 502 A 30 30 0 0 1 585.700012 472 A 30 30 0 0 1 615.700012 502 Z" class="st11" style="fill-rule: evenodd; clip-rule: evenodd; fill: rgb(247, 196, 158);" transform="matrix(0.9999999999999999, 0, 0, 0.9999999999999999, -8.526512829121202e-14, 0)"/><path class="st9" d="M656.7,422.1h-20c-3.4,0-6.6,1.4-8.9,3.7c-2.1,2.1-3.4,4.9-3.6,8h-6.7c-0.2-3.1-1.6-5.9-3.7-8&#10;&#9;&#9;&#9;&#9;c-2.3-2.3-5.4-3.7-8.9-3.7h-20c-3.4,0-6.6,1.4-8.9,3.7c-2.3,2.3-3.7,5.4-3.7,8.8v4.7c0,3.5,1.4,6.6,3.7,8.9&#10;&#9;&#9;&#9;&#9;c2.3,2.3,5.4,3.7,8.8,3.7h20c3.4,0,6.6-1.4,8.9-3.7c2.3-2.3,3.7-5.4,3.7-8.9v-0.8h6.7v0.8c0,3.5,1.4,6.6,3.7,8.9&#10;&#9;&#9;&#9;&#9;c2.3,2.3,5.4,3.7,8.9,3.7h20c3.5,0,6.6-1.4,8.9-3.7c2.3-2.3,3.7-5.4,3.7-8.9v-4.7c0-3.4-1.4-6.6-3.7-8.9&#10;&#9;&#9;&#9;&#9;C663.3,423.5,660.2,422.1,656.7,422.1z M612.6,436.2v3.2c0,2.1-0.9,4.1-2.3,5.5c-1.4,1.4-3.3,2.3-5.5,2.3h-20&#10;&#9;&#9;&#9;&#9;c-2.1,0-4.1-0.9-5.5-2.3c-1.4-1.4-2.3-3.3-2.3-5.5v-4.7c0-2.1,0.9-4.1,2.3-5.5c1.4-1.4,3.3-2.3,5.5-2.3h20c2.1,0,4.1,0.9,5.5,2.3&#10;&#9;&#9;&#9;&#9;c1.4,1.4,2.3,3.3,2.3,5.5V436.2z M664.4,439.3c0,2.1-0.9,4.1-2.3,5.5c-1.4,1.4-3.3,2.3-5.5,2.3h-20c-2.1,0-4.1-0.9-5.5-2.3&#10;&#9;&#9;&#9;&#9;c-1.4-1.4-2.3-3.3-2.3-5.5v-3.2v-1.6c0-2.1,0.9-4.1,2.3-5.5c1.4-1.4,3.3-2.3,5.5-2.3h20c2.1,0,4.1,0.9,5.5,2.3&#10;&#9;&#9;&#9;&#9;c1.4,1.4,2.3,3.3,2.3,5.5V439.3z" style="fill-rule: evenodd; clip-rule: evenodd; fill: rgb(49, 59, 74);" transform="matrix(0.9999999999999999, 0, 0, 0.9999999999999999, -1.1368683772161603e-13, 0)"/><path class="st9" d="M571.4,431.4h-41.7c-2.7,0-4.8,2.1-4.8,4.8c0,2.7,2.2,4.8,4.8,4.8h41.7c2.7,0,4.8-2.2,4.8-4.8&#10;&#9;&#9;&#9;&#9;C576.2,433.5,574,431.4,571.4,431.4z" style="fill-rule: evenodd; clip-rule: evenodd; fill: rgb(49, 59, 74);" transform="matrix(0.9999999999999999, 0, 0, 0.9999999999999999, -1.1368683772161603e-13, 0)"/><path class="st18" d="M537.4,375.7c-2.2-0.8-4.4-1.3-6.6-1.5c6.4,8.6,8.5,20.6,4.5,32.1c-5.4,15.3-19.9,24.5-34.4,22.9&#10;&#9;&#9;&#9;c3.5,4.6,8.2,8.3,14,10.3c16.4,5.8,34.8-3.8,41-21.4C562.1,400.4,553.8,381.5,537.4,375.7z" style="fill-rule: evenodd; clip-rule: evenodd; fill: rgb(97, 36, 36);" transform="matrix(0.9999999999999999, 0, 0, 0.9999999999999999, -8.526512829121202e-14, 0)"/><path class="st19" d="M539.7,403.5h-73.6c-4.3,0-7.8,3.5-7.8,7.8c0,4.3,3.5,7.8,7.8,7.8h73.6c4.3,0,7.8-3.5,7.8-7.8&#10;&#9;&#9;&#9;&#9;C547.6,407.1,544,403.5,539.7,403.5z" style="fill-rule: evenodd; clip-rule: evenodd; fill: rgb(116, 24, 51);" transform="matrix(0.9999999999999999, 0, 0, 0.9999999999999999, -1.1368683772161603e-13, 0)"/><path class="st20" d="M614.5,333H570c-23.7,0-43.1,19.4-43.1,43.1v43.1h130.7v-43.1C657.6,352.4,638.2,333,614.5,333z" style="fill-rule: evenodd; clip-rule: evenodd; fill: rgb(139, 42, 74);" transform="matrix(0.9999999999999999, 0, 0, 0.9999999999999999, -1.4210854715202004e-13, 0)"/><path class="st19" d="M634.7,377.6h-9.2c-7.8,0-14.3,6.4-14.3,14.3c0,7.8,6.4,14.3,14.3,14.3h9.2c7.8,0,14.3-6.4,14.3-14.3&#10;&#9;&#9;&#9;&#9;&#9;C648.9,384,642.5,377.6,634.7,377.6z" style="fill-rule: evenodd; clip-rule: evenodd; fill: rgb(116, 24, 51);" transform="matrix(0.9999999999999999, 0, 0, 0.9999999999999999, -1.4210854715202004e-13, 0)"/><path class="st18" d="M532.5,419.2c-0.3,1.2-0.7,2.4-1.1,3.6c-7.1,20-26.1,32.1-45,29.9c4.5,6.1,10.8,10.8,18.3,13.5&#10;&#9;&#9;&#9;c21.5,7.6,45.4-4.9,53.6-28c2.2-6.4,3-12.9,2.6-19.1H532.5z" style="fill-rule: evenodd; clip-rule: evenodd; fill: rgb(97, 36, 36);" transform="matrix(0.9999999999999999, 0, 0, 0.9999999999999999, -8.526512829121202e-14, 0)"/><path d="M 495 844.599976 H 522.5 V 865.299976 H 495 V 844.599976 Z" class="st21" style="fill-rule: evenodd; clip-rule: evenodd; fill: rgb(175, 174, 174);" transform="matrix(0.9999999999999999, 0, 0, 0.9999999999999999, -8.526512829121202e-14, 0)"/><path class="st22" d="M496,941.8c-3.3,0-6.1,2.7-6.1,6v19.9c0,3.3,2.7,6,6.1,6c3.3,0,6-2.7,6-6v-19.9&#10;&#9;&#9;&#9;C502,944.5,499.3,941.8,496,941.8z" style="fill-rule: evenodd; clip-rule: evenodd; fill: rgb(231, 229, 228);" transform="matrix(0.9999999999999999, 0, 0, 0.9999999999999999, -8.526512829121202e-14, 0)"/><path class="st22" d="M636.9,405.4h-32.4v13.8h32.4c3.8,0,6.9-3.1,6.9-6.9v0C643.8,408.5,640.7,405.4,636.9,405.4z" style="fill-rule: evenodd; clip-rule: evenodd; fill: rgb(231, 229, 228);" transform="matrix(0.9999999999999999, 0, 0, 0.9999999999999999, -8.526512829121202e-14, 0)"/><path class="st15" d="M1008.6,283.1c-15.7,0-28.4,12.7-28.4,28.4c0,15.7,12.7,28.5,28.4,28.5c15.7,0,28.5-12.7,28.5-28.5&#10;&#9;&#9;&#9;C1037,295.9,1024.3,283.1,1008.6,283.1z" style="fill-rule: evenodd; clip-rule: evenodd; fill: rgb(36, 117, 163);" transform="matrix(0.9999999999999999, 0, 0, 0.9999999999999999, -8.526512829121202e-14, 0)"/><path class="st15" d="M1077.2,466.4c-4.7-2-10.1,0.2-12,4.9l-74,174.4c-2,4.7,0.2,10.1,4.9,12c4.7,2,10.1-0.2,12-4.9l74-174.4&#10;&#9;&#9;&#9;C1084.1,473.7,1081.9,468.4,1077.2,466.4z" style="fill-rule: evenodd; clip-rule: evenodd; fill: rgb(36, 117, 163);" transform="matrix(0.9999999999999999, 0, 0, 0.9999999999999999, -8.526512829121202e-14, 0)"/><path class="st15" d="M1036.2,641.9h-73.2c-3.5,0-6.3,2.8-6.3,6.3v2.2c0,3.5,2.8,6.3,6.3,6.3h73.2c3.5,0,6.3-2.8,6.3-6.3v-2.2&#10;&#9;&#9;&#9;C1042.5,644.7,1039.7,641.9,1036.2,641.9z" style="fill-rule: evenodd; clip-rule: evenodd; fill: rgb(36, 117, 163);" transform="matrix(0.9999999999999999, 0, 0, 0.9999999999999999, -8.526512829121202e-14, 0)"/><path class="st15" d="M973.4,334.8c-3.2-4-8.9-4.6-12.9-1.4c-4,3.2-4.6,8.9-1.4,12.9l107.4,134.3c3.2,4,8.9,4.6,12.9,1.4&#10;&#9;&#9;&#9;c4-3.2,4.6-8.9,1.4-12.9L973.4,334.8z" style="fill-rule: evenodd; clip-rule: evenodd; fill: rgb(36, 117, 163);" transform="matrix(0.9999999999999999, 0, 0, 0.9999999999999999, -8.526512829121202e-14, 0)"/><path class="st15" d="M909.2,308.5c-4.3,4.3-7.9,9-10.9,14.1l95.2,95.2c5-2.9,9.8-6.6,14.1-10.9c27.2-27.2,27.2-71.2,0-98.4&#10;&#9;&#9;&#9;C980.4,281.4,936.4,281.4,909.2,308.5z" style="fill-rule: evenodd; clip-rule: evenodd; fill: rgb(36, 117, 163);" transform="matrix(0.9999999999999999, 0, 0, 0.9999999999999999, -8.526512829121202e-14, 0)"/><path d="M 1091.499975 474.799988 A 17.9 17.9 0 0 1 1073.599976 492.699987 A 17.9 17.9 0 0 1 1055.699976 474.799988 A 17.9 17.9 0 0 1 1073.599976 456.899988 A 17.9 17.9 0 0 1 1091.499975 474.799988 Z" class="st15" style="fill-rule: evenodd; clip-rule: evenodd; fill: rgb(36, 117, 163);" transform="matrix(0.9999999999999999, 0, 0, 0.9999999999999999, -8.526512829121202e-14, 0)"/><path d="M 343.399994 682.799988 H 382.199993 V 980.099976 H 343.399994 V 682.799988 Z" class="st23" style="fill-rule: evenodd; clip-rule: evenodd; fill: rgb(214, 134, 90);" transform="matrix(0.9999999999999999, 0, 0, 0.9999999999999999, -8.526512829121202e-14, 0)"/><path d="M 618.200012 682.799988 H 657.000011 V 980.099976 H 618.200012 V 682.799988 Z" class="st23" style="fill-rule: evenodd; clip-rule: evenodd; fill: rgb(214, 134, 90);" transform="matrix(0.9999999999999999, 0, 0, 0.9999999999999999, -8.526512829121202e-14, 0)"/><path class="st23" d="M1151.7,656.7H316.3c-14.3,0-26,11.7-26,26c0,14.3,11.7,26,26,26h835.4c14.3,0,26-11.7,26-26&#10;&#9;&#9;&#9;C1177.7,668.4,1166,656.7,1151.7,656.7z" style="fill-rule: evenodd; clip-rule: evenodd; fill: rgb(214, 134, 90);" transform="matrix(0.9999999999999999, 0, 0, 0.9999999999999999, -8.526512829121202e-14, 0)"/><path class="st6" d="M1151.7,656.7H736.9c-14.3,0-26,11.7-26,26c0,14.3,11.7,26,26,26h414.8c14.3,0,26-11.7,26-26&#10;&#9;&#9;&#9;C1177.7,668.4,1166,656.7,1151.7,656.7z" style="fill-rule: evenodd; clip-rule: evenodd; fill: rgb(166, 99, 54);" transform="matrix(0.9999999999999999, 0, 0, 0.9999999999999999, -8.526512829121202e-14, 0)"/><path d="M 641.700012 391 H 912.300018 V 570.399994 H 641.700012 V 391 Z" class="st5" style="fill-rule: evenodd; clip-rule: evenodd; fill: rgb(80, 91, 100);" transform="matrix(0.9999999999999999, 0, 0, 0.9999999999999999, -8.526512829121202e-14, 0)"/><path d="M 662.5 391 H 933.100006 V 570.399994 H 662.5 V 391 Z" class="st4" style="fill-rule: evenodd; clip-rule: evenodd; fill: rgb(65, 76, 88);" transform="matrix(0.9999999999999999, 0, 0, 0.9999999999999999, -8.526512829121202e-14, 0)"/><path class="st5" d="M842.3,479.8h-71.7c-7.8,0-14.2,6.4-14.2,14.2v30.6c0,7.8,6.4,14.2,14.2,14.2h71.7c7.8,0,14.2-6.4,14.2-14.2&#10;&#9;&#9;&#9;v-30.6C856.5,486.2,850.1,479.8,842.3,479.8z" style="fill-rule: evenodd; clip-rule: evenodd; fill: rgb(80, 91, 100);" transform="matrix(0.9999999999999999, 0, 0, 0.9999999999999999, -8.526512829121202e-14, 0)"/><path d="M 779.4000244140625 522.0999755859375 L 801.0999755859375 644.2000122070312 L 855.9000244140625 644.2000122070312 L 834.2999877929688 522.0999755859375 Z" class="st5" style="fill-rule: evenodd; clip-rule: evenodd; fill: rgb(80, 91, 100);" transform="matrix(0.9999999999999999, 0, 0, 0.9999999999999999, -8.526512829121202e-14, 0)"/><path d="M 793.7999877929688 522.0999755859375 L 815.5 644.2000122070312 L 870.2999877929688 644.2000122070312 L 848.7000122070312 522.0999755859375 Z" class="st4" style="fill-rule: evenodd; clip-rule: evenodd; fill: rgb(65, 76, 88);" transform="matrix(0.9999999999999999, 0, 0, 0.9999999999999999, -8.526512829121202e-14, 0)"/><path d="M 786.700012 640.200012 H 910.300011 V 656.700012 H 786.700012 V 640.200012 Z" class="st4" style="fill-rule: evenodd; clip-rule: evenodd; fill: rgb(65, 76, 88);" transform="matrix(0.9999999999999999, 0, 0, 0.9999999999999999, -8.526512829121202e-14, 0)"/><path class="st4" d="M855.9,479.8h-71.6c-7.8,0-14.2,6.4-14.2,14.2v30.6c0,7.8,6.4,14.2,14.2,14.2h71.6c7.8,0,14.2-6.4,14.2-14.2&#10;&#9;&#9;&#9;v-30.6C870.1,486.2,863.7,479.8,855.9,479.8z" style="fill-rule: evenodd; clip-rule: evenodd; fill: rgb(65, 76, 88);" transform="matrix(0.9999999999999999, 0, 0, 0.9999999999999999, -8.526512829121202e-14, 0)"/><path d="M 724.700012 640.200012 H 795.000015 V 656.700012 H 724.700012 V 640.200012 Z" class="st5" style="fill-rule: evenodd; clip-rule: evenodd; fill: rgb(80, 91, 100);" transform="matrix(0.9999999999999999, 0, 0, 0.9999999999999999, -8.526512829121202e-14, 0)"/><path class="st9" d="M733.7,529.3h-44.1c-3.2,0-5.8,2.6-5.8,5.8v14.1c0,3.2,2.6,5.8,5.8,5.8h44.1c3.2,0,5.8-2.6,5.8-5.8v-14.1&#10;&#9;&#9;&#9;C739.4,531.9,736.8,529.3,733.7,529.3z" style="fill-rule: evenodd; clip-rule: evenodd; fill: rgb(49, 59, 74);" transform="matrix(0.9999999999999999, 0, 0, 0.9999999999999999, -8.526512829121202e-14, 0)"/><path class="st24" d="M538.8,665.8H321.7c-7,0-12.7,5.7-12.7,12.7c0,7,5.7,12.7,12.7,12.7h217.1c7,0,12.7-5.7,12.7-12.7&#10;&#9;&#9;&#9;&#9;C551.5,671.5,545.8,665.8,538.8,665.8z" style="fill-rule: evenodd; clip-rule: evenodd; fill: rgb(204, 120, 73);" transform="matrix(0.9999999999999999, 0, 0, 0.9999999999999999, -1.1368683772161603e-13, 0)"/><path class="st25" d="M538.8,665.8H375.5c-7,0-12.7,5.7-12.7,12.7c0,7,5.7,12.7,12.7,12.7h163.3c7,0,12.7-5.7,12.7-12.7&#10;&#9;&#9;&#9;&#9;C551.5,671.5,545.8,665.8,538.8,665.8z" style="fill-rule: evenodd; clip-rule: evenodd; fill: rgb(210, 131, 87);" transform="matrix(0.9999999999999999, 0, 0, 0.9999999999999999, -1.1368683772161603e-13, 0)"/><path class="st26" d="M538.8,665.8h-98.5c-7,0-12.7,5.7-12.7,12.7c0,7,5.7,12.7,12.7,12.7h98.5c7,0,12.7-5.7,12.7-12.7&#10;&#9;&#9;&#9;&#9;C551.5,671.5,545.8,665.8,538.8,665.8z" style="fill-rule: evenodd; clip-rule: evenodd; fill: rgb(223, 146, 106);" transform="matrix(0.9999999999999999, 0, 0, 0.9999999999999999, -1.1368683772161603e-13, 0)"/><path class="st27" d="M1038.3,656.7h-263c-14.3,0-26,11.7-26,26c0,14.3,11.7,26,26,26h263c14.3,0,26-11.7,26-26&#10;&#9;&#9;&#9;C1064.3,668.4,1052.6,656.7,1038.3,656.7z" style="fill-rule: evenodd; clip-rule: evenodd; fill: rgb(134, 73, 35);" transform="matrix(0.9999999999999999, 0, 0, 0.9999999999999999, -8.526512829121202e-14, 0)"/><path d="M 810.5999755859375 556.2000122070312 L 827 640.2000122070312 L 866.0999755859375 640.2000122070312 L 849.7999877929688 556.2000122070312 Z" class="st28" style="fill-rule: evenodd; clip-rule: evenodd; fill: rgb(57, 69, 80);" transform="matrix(0.9999999999999999, 0, 0, 0.9999999999999999, -8.526512829121202e-14, 0)"/><path class="st15" d="M1277.1,808h-41.6c-7.4,0-13.5,6.1-13.5,13.5v41.6c0,7.4,6.1,13.5,13.5,13.5h41.6c7.4,0,13.5-6.1,13.5-13.5&#10;&#9;&#9;&#9;v-41.6C1290.6,814.1,1284.5,808,1277.1,808z" style="fill-rule: evenodd; clip-rule: evenodd; fill: rgb(36, 117, 163);" transform="matrix(0.9999999999999999, 0, 0, 0.9999999999999999, -8.526512829121202e-14, 0)"/><path d="M 1026.000025 793 A 19.1 19.1 0 0 1 1006.900024 812.1 A 19.1 19.1 0 0 1 987.800024 793 A 19.1 19.1 0 0 1 1006.900024 773.9 A 19.1 19.1 0 0 1 1026.000025 793 Z" class="st29" style="fill-rule: evenodd; clip-rule: evenodd; fill: rgb(48, 58, 71);" transform="matrix(0.9999999999999999, 0, 0, 0.9999999999999999, -8.526512829121202e-14, 0)"/><path class="st4" d="M918.5,784.8H814.1c-4.3,0-7.7,3.5-7.7,7.7v133.8c0,4.3,3.5,7.7,7.7,7.7h104.4c4.3,0,7.7-3.5,7.7-7.7V792.5&#10;&#9;&#9;&#9;C926.2,788.2,922.8,784.8,918.5,784.8z" style="fill-rule: evenodd; clip-rule: evenodd; fill: rgb(65, 76, 88);" transform="matrix(0.9999999999999999, 0, 0, 0.9999999999999999, -8.526512829121202e-14, 0)"/><path class="st4" d="M966.8,840.6c-2.8,0-5.2,2.3-5.2,5.2c0,7.7-3.2,14.7-8.2,19.8c-5.1,5.1-12.1,8.2-19.8,8.2&#10;&#9;&#9;&#9;c-7.7,0-14.7-3.2-19.8-8.2c-5.1-5.1-8.2-12.1-8.2-19.8V722.1V575.7c0-6.4-2.6-12.3-6.9-16.5c-4.2-4.2-10.1-6.9-16.5-6.9h-18.2&#10;&#9;&#9;&#9;c-2.8,0-5.2,2.3-5.2,5.2c0,2.8,2.3,5.2,5.2,5.2h18.2c3.6,0,6.9,1.5,9.2,3.8v0c2.4,2.4,3.8,5.6,3.8,9.2v146.5v123.7&#10;&#9;&#9;&#9;c0,10.6,4.3,20.2,11.3,27.1h0c7,6.9,16.5,11.3,27.1,11.3c10.6,0,20.2-4.3,27.1-11.3c7-7,11.3-16.5,11.3-27.1&#10;&#9;&#9;&#9;C972,842.9,969.7,840.6,966.8,840.6z" style="fill-rule: evenodd; clip-rule: evenodd; fill: rgb(65, 76, 88);" transform="matrix(0.9999999999999999, 0, 0, 0.9999999999999999, -8.526512829121202e-14, 0)"/><path class="st29" d="M990.4,813.5h-18.7c-1.7,0-3.1,1.4-3.1,3.1v85c0,1.7,1.4,3.1,3.1,3.1h18.7c1.7,0,3.1-1.4,3.1-3.1v-85&#10;&#9;&#9;&#9;C993.5,814.9,992.1,813.5,990.4,813.5z" style="fill-rule: evenodd; clip-rule: evenodd; fill: rgb(48, 58, 71);" transform="matrix(0.9999999999999999, 0, 0, 0.9999999999999999, -8.526512829121202e-14, 0)"/><path d="M 1272.000049 842.299988 A 15.7 15.7 0 0 1 1256.300049 857.999988 A 15.7 15.7 0 0 1 1240.600049 842.299988 A 15.7 15.7 0 0 1 1256.300049 826.599988 A 15.7 15.7 0 0 1 1272.000049 842.299988 Z" class="st5" style="fill-rule: evenodd; clip-rule: evenodd; fill: rgb(80, 91, 100);" transform="matrix(0.9999999999999999, 0, 0, 0.9999999999999999, -8.526512829121202e-14, 0)"/><path class="st5" d="M1256.3,837.1h-27.9c-5.3,0-10.1,2.1-13.5,5.6c-3.5,3.5-5.6,8.2-5.6,13.5v12.3v23v55.3c0,6.3-2.6,12-6.7,16.2&#10;&#9;&#9;&#9;c-4.1,4.1-9.9,6.7-16.2,6.7h-183.6c-2.8,0-5.2,2.3-5.2,5.2c0,2.8,2.3,5.2,5.2,5.2h183.6c9.1,0,17.4-3.7,23.4-9.7l0,0&#10;&#9;&#9;&#9;c6-6,9.7-14.3,9.7-23.4v-55.3v-23v-12.3c0-2.4,1-4.6,2.6-6.2c1.6-1.6,3.8-2.6,6.2-2.6h27.9c2.8,0,5.2-2.3,5.2-5.2&#10;&#9;&#9;&#9;C1261.5,839.4,1259.2,837.1,1256.3,837.1z" style="fill-rule: evenodd; clip-rule: evenodd; fill: rgb(80, 91, 100);" transform="matrix(0.9999999999999999, 0, 0, 0.9999999999999999, -8.526512829121202e-14, 0)"/><path class="st6" d="M364.7,879c0,4,3.3,7.2,7.2,7.2c4,0,7.2-3.3,7.2-7.2V708.8h-14.5V879z" style="fill-rule: evenodd; clip-rule: evenodd; fill: rgb(166, 99, 54);" transform="matrix(0.9999999999999999, 0, 0, 0.9999999999999999, -8.526512829121202e-14, 0)"/><path class="st6" d="M638.2,879c0,4,3.3,7.2,7.2,7.2h0c4,0,7.2-3.3,7.2-7.2V708.8h-14.5V879z" style="fill-rule: evenodd; clip-rule: evenodd; fill: rgb(166, 99, 54);" transform="matrix(0.9999999999999999, 0, 0, 0.9999999999999999, -8.526512829121202e-14, 0)"/><path class="st5" d="M698.6,404.7c-10.2,0-18.6,8.4-18.6,18.6v76.3c0,10.2,8.4,18.6,18.6,18.6c10.2,0,18.6-8.4,18.6-18.6v-76.3&#10;&#9;&#9;&#9;C717.2,413.1,708.8,404.7,698.6,404.7z" style="fill-rule: evenodd; clip-rule: evenodd; fill: rgb(80, 91, 100);" transform="matrix(0.9999999999999999, 0, 0, 0.9999999999999999, -8.526512829121202e-14, 0)"/><path d="M 471.400006 341 A 10.3 10.3 0 0 1 461.100006 351.3 A 10.3 10.3 0 0 1 450.800006 341 A 10.3 10.3 0 0 1 461.100006 330.7 A 10.3 10.3 0 0 1 471.400006 341 Z" class="st1" style="fill-rule: evenodd; clip-rule: evenodd; fill: rgb(127, 182, 218);" transform="matrix(0.9999999999999999, 0, 0, 0.9999999999999999, -1.1368683772161603e-13, 0)"/><path d="M 443.600012 317.600006 A 5.9 5.9 0 0 1 437.700012 323.500006 A 5.9 5.9 0 0 1 431.800012 317.600006 A 5.9 5.9 0 0 1 437.700012 311.700006 A 5.9 5.9 0 0 1 443.600012 317.600006 Z" class="st1" style="fill-rule: evenodd; clip-rule: evenodd; fill: rgb(127, 182, 218);" transform="matrix(0.9999999999999999, 0, 0, 0.9999999999999999, -1.1368683772161603e-13, 0)"/><path d="M 675.3 346.899994 A 4.3 4.3 0 0 1 671 351.199994 A 4.3 4.3 0 0 1 666.7 346.899994 A 4.3 4.3 0 0 1 671 342.599994 A 4.3 4.3 0 0 1 675.3 346.899994 Z" class="st1" style="fill-rule: evenodd; clip-rule: evenodd; fill: rgb(127, 182, 218);" transform="matrix(0.9999999999999999, 0, 0, 0.9999999999999999, -1.1368683772161603e-13, 0)"/><path d="M 683.400024 337 A 2.5 2.5 0 0 1 680.900024 339.5 A 2.5 2.5 0 0 1 678.400024 337 A 2.5 2.5 0 0 1 680.900024 334.5 A 2.5 2.5 0 0 1 683.400024 337 Z" class="st1" style="fill-rule: evenodd; clip-rule: evenodd; fill: rgb(127, 182, 218);" transform="matrix(0.9999999999999999, 0, 0, 0.9999999999999999, -1.1368683772161603e-13, 0)"/>
</svg>